<svg width="23" height="23" viewBox="0 0 23 23" fill="none" xmlns="http://www.w3.org/2000/svg">
<path d="M20.6706 8.41939C20.613 8.24958 20.5068 8.10037 20.3653 7.99018C20.2239 7.87999 20.0532 7.81365 19.8744 7.79934L14.6453 7.38383L12.3825 2.37482C12.3104 2.21349 12.1932 2.07646 12.045 1.98028C11.8968 1.88409 11.7239 1.83286 11.5472 1.83276C11.3705 1.83267 11.1975 1.88371 11.0492 1.97973C10.9009 2.07575 10.7835 2.21265 10.7113 2.3739L8.44846 7.38383L3.21931 7.79934C3.04362 7.81326 2.87566 7.8775 2.73552 7.98438C2.59538 8.09125 2.489 8.23624 2.4291 8.40199C2.36921 8.56774 2.35834 8.74724 2.39778 8.91901C2.43723 9.09078 2.52533 9.24755 2.65154 9.37056L6.51585 13.1376L5.14917 19.0556C5.10767 19.2348 5.12097 19.4222 5.18734 19.5937C5.25372 19.7652 5.3701 19.9128 5.52138 20.0173C5.67267 20.1218 5.85188 20.1785 6.03575 20.1799C6.21963 20.1813 6.39968 20.1274 6.55254 20.0252L11.5469 16.6956L16.5412 20.0252C16.6975 20.1289 16.8817 20.1823 17.0692 20.1782C17.2567 20.1741 17.4384 20.1126 17.59 20.0022C17.7415 19.8917 17.8556 19.7374 17.9169 19.5602C17.9781 19.3829 17.9836 19.1912 17.9327 19.0107L16.255 13.1404L20.4156 9.39625C20.688 9.15043 20.788 8.76702 20.6706 8.41939Z" fill="#F3CD03"/>
</svg>
