<svg width="23" height="23" viewBox="0 0 23 23" fill="none" xmlns="http://www.w3.org/2000/svg">
<path d="M6.53166 13.1377L5.16498 19.0557C5.12266 19.2349 5.13536 19.4227 5.20143 19.5945C5.2675 19.7664 5.38387 19.9143 5.53533 20.0191C5.68679 20.1238 5.86631 20.1804 6.05043 20.1814C6.23456 20.1825 6.41474 20.1281 6.56743 20.0252L11.5618 16.6956L16.5561 20.0252C16.7123 20.1289 16.8966 20.1823 17.0841 20.1782C17.2716 20.1741 17.4533 20.1127 17.6049 20.0022C17.7564 19.8917 17.8705 19.7375 17.9317 19.5602C17.993 19.383 17.9985 19.1912 17.9476 19.0107L16.2699 13.1404L20.4305 9.39628C20.5638 9.27629 20.6589 9.11988 20.7042 8.94638C20.7495 8.77289 20.743 8.58992 20.6854 8.4201C20.6278 8.25029 20.5217 8.10107 20.3802 7.99091C20.2388 7.88075 20.0681 7.81448 19.8893 7.80029L14.6602 7.38386L12.3974 2.37485C12.3252 2.21356 12.2079 2.0766 12.0597 1.98049C11.9114 1.88439 11.7385 1.83325 11.5618 1.83325C11.3851 1.83325 11.2122 1.88439 11.0639 1.98049C10.9156 2.0766 10.7983 2.21356 10.7262 2.37485L8.46335 7.38386L3.2342 7.79937C3.05851 7.81329 2.89055 7.87753 2.75041 7.98441C2.61027 8.09128 2.50389 8.23627 2.444 8.40202C2.3841 8.56777 2.37323 8.74727 2.41268 8.91904C2.45212 9.09081 2.54022 9.24758 2.66643 9.37059L6.53166 13.1377ZM9.14853 9.16972C9.31225 9.15682 9.46948 9.10012 9.60375 9.00555C9.73802 8.91098 9.84438 8.78203 9.91167 8.63222L11.5618 4.98071L13.2119 8.63222C13.2792 8.78203 13.3855 8.91098 13.5198 9.00555C13.6541 9.10012 13.8113 9.15682 13.975 9.16972L17.6183 9.45865L14.618 12.159C14.3575 12.3938 14.2539 12.7552 14.3492 13.0927L15.4985 17.1148L12.0718 14.83C11.9213 14.729 11.7443 14.6751 11.5631 14.6751C11.382 14.6751 11.2049 14.729 11.0545 14.83L7.47366 17.2175L8.43675 13.0478C8.47207 12.8944 8.46733 12.7346 8.42299 12.5836C8.37866 12.4326 8.29621 12.2955 8.1836 12.1856L5.39704 9.46874L9.14853 9.16972Z" fill="#F3CD03"/>
</svg>
